<svg width="104" height="104" viewBox="0 0 104 104" fill="none" xmlns="http://www.w3.org/2000/svg">
<path d="M100 12.0113L51.625 12L51.4141 72.1752L99.7894 72.1865L100 12.0113Z" fill="#515151"/>
<path d="M94.6189 16.8818L46.3418 16.8491L46.9285 77.0907L95.2057 77.1234L94.6189 16.8818Z" fill="#D9D9D9"/>
<g clip-path="url(#clip0_3300_37290)">
<path d="M30.8906 32.0389V37.3674C30.8906 37.8388 31.275 38.2209 31.7491 38.2209H32.3703C32.8444 38.2209 33.2287 37.8388 33.2287 37.3674V32.0389C33.2287 31.5675 32.8444 31.1854 32.3703 31.1854H31.7491C31.275 31.1854 30.8906 31.5675 30.8906 32.0389Z" fill="#8E8E8E"/>
<path d="M55.083 32.0389V37.3674C55.083 37.8388 55.4673 38.2209 55.9415 38.2209H56.5626C57.0367 38.2209 57.4211 37.8388 57.4211 37.3674V32.0389C57.4211 31.5675 57.0367 31.1854 56.5626 31.1854H55.9415C55.4673 31.1854 55.083 31.5675 55.083 32.0389Z" fill="#8E8E8E"/>
<path d="M55.7183 33.411C55.7183 33.411 50.5531 32.7717 43.9989 32.7735C37.3143 32.7753 32.3574 33.411 32.3574 33.411C31.3179 33.411 30.4775 32.5736 30.4775 31.5418C30.4775 30.5082 31.3197 29.6726 32.3574 29.6726C32.3574 29.6726 36.6913 28.9829 43.6458 29.0189C50.3449 29.055 55.7183 29.6726 55.7183 29.6726C56.7578 29.6726 57.5982 30.51 57.5982 31.5418C57.5982 32.5754 56.756 33.411 55.7183 33.411V33.411Z" fill="#272727"/>
<path d="M5.98047 58.5464H81.2199V88.5235C81.2199 91.5379 78.7888 93.9835 75.7966 93.9835H11.4038C8.40969 93.9835 5.98047 91.5359 5.98047 88.5235V58.5464V58.5464Z" fill="#0051CA"/>
<path d="M75.3802 70.4819H11.7393C8.33846 70.4819 5.58203 67.9489 5.58203 64.8237V66.2459C5.58203 69.371 8.33846 72.6908 11.7393 72.6908H75.3802C78.781 72.6908 81.5374 69.371 81.5374 66.2459V64.8237C81.5374 67.9489 78.781 70.4819 75.3802 70.4819Z" fill="#0051CA"/>
<path d="M4 35.906H83.1994V64.2419C83.1994 67.617 80.3235 70.3588 76.7792 70.3588H10.4202C6.87777 70.3588 4 67.6187 4 64.2419V35.906Z" fill="#006DE3"/>
<path d="M29.0302 67.4016H25.0481C24.4283 67.4016 23.9258 68.1365 23.9258 69.043V73.1898C23.9258 74.0963 24.4283 74.8312 25.0481 74.8312H29.0302C29.65 74.8312 30.1525 74.0963 30.1525 73.1898V69.043C30.1525 68.1365 29.65 67.4016 29.0302 67.4016Z" fill="#8E8E8E"/>
<path d="M29.0302 66.1633H25.0481C24.4283 66.1633 23.9258 66.8982 23.9258 67.8048V71.9515C23.9258 72.858 24.4283 73.5929 25.0481 73.5929H29.0302C29.65 73.5929 30.1525 72.858 30.1525 71.9515V67.8048C30.1525 66.8982 29.65 66.1633 29.0302 66.1633Z" fill="#E2E2E2"/>
<path d="M62.6542 67.4016H58.6721C58.0523 67.4016 57.5498 68.1365 57.5498 69.043V73.1898C57.5498 74.0963 58.0523 74.8312 58.6721 74.8312H62.6542C63.2741 74.8312 63.7766 74.0963 63.7766 73.1898V69.043C63.7766 68.1365 63.2741 67.4016 62.6542 67.4016Z" fill="#8E8E8E"/>
<path d="M62.6542 66.1633H58.6721C58.0523 66.1633 57.5498 66.8982 57.5498 67.8048V71.9515C57.5498 72.858 58.0523 73.5929 58.6721 73.5929H62.6542C63.2741 73.5929 63.7766 72.858 63.7766 71.9515V67.8048C63.7766 66.8982 63.2741 66.1633 62.6542 66.1633Z" fill="#E2E2E2"/>
</g>
<defs>
<clipPath id="clip0_3300_37290">
<rect width="79.1994" height="68.1841" fill="white" transform="translate(4 29.0154)"/>
</clipPath>
</defs>
</svg>
