<svg width="104" height="104" viewBox="0 0 104 104" fill="none" xmlns="http://www.w3.org/2000/svg">
<path d="M6.00005 12.2153L6 92.7102L66.3393 93.0002L66.3416 12.505L6.00005 12.2153Z" fill="#E2E2E2"/>
<path d="M69.5083 11.1121L8.70605 11.6154L8.70605 89.6321H69.5083L69.5083 11V11.1121Z" fill="#F6F6F6"/>
<path d="M17.1221 39.4346C17.1221 38.33 18.0175 37.4346 19.1221 37.4346H44.4152C45.5198 37.4346 46.4152 38.33 46.4152 39.4346V40.3134C46.4152 41.4179 45.5198 42.3134 44.4152 42.3134H19.1221C18.0175 42.3134 17.1221 41.4179 17.1221 40.3134V39.4346Z" fill="#E2E2E2"/>
<path d="M17.1221 50.4121C17.1221 49.3075 18.0175 48.4121 19.1221 48.4121H29.7686C30.8732 48.4121 31.7686 49.3075 31.7686 50.4121V51.2909C31.7686 52.3955 30.8732 53.2909 29.7686 53.2909H19.1221C18.0175 53.2909 17.1221 52.3955 17.1221 51.2909V50.4121Z" fill="#E2E2E2"/>
<path d="M17.1221 28.4575C17.1221 27.353 18.0175 26.4575 19.1221 26.4575H39.533C40.6376 26.4575 41.533 27.3529 41.533 28.4575V29.3363C41.533 30.4409 40.6376 31.3363 39.533 31.3363H19.1221C18.0175 31.3363 17.1221 30.4409 17.1221 29.3363V28.4575Z" fill="#E2E2E2"/>
<path d="M59.8419 24.0175L54.9597 28.2819L53.1289 27.6766L54.9597 30.7259L59.8419 24.0151V24.0175Z" fill="#006666"/>
<path d="M59.8419 34.997L54.9597 39.2614L53.1289 38.6561L54.9597 41.7053L59.8419 34.9946V34.997Z" fill="#006666"/>
<path d="M16.9658 61.293C16.9658 60.1884 17.8613 59.293 18.9658 59.293H58.0138C59.1184 59.293 60.0138 60.1884 60.0138 61.293V62.1629C60.0138 63.2675 59.1184 64.1629 58.0138 64.1629H18.9658C17.8613 64.1629 16.9658 63.2675 16.9658 62.1629V61.293Z" fill="#E2E2E2"/>
<path d="M16.9658 72.2505C16.9658 71.1459 17.8613 70.2505 18.9658 70.2505H58.0138C59.1184 70.2505 60.0138 71.1459 60.0138 72.2505V73.1205C60.0138 74.225 59.1184 75.1205 58.0138 75.1205H18.9658C17.8613 75.1205 16.9658 74.225 16.9658 73.1205V72.2505Z" fill="#E2E2E2"/>
<g clip-path="url(#clip0_2788_30058)">
<path d="M50.6023 21.5518C38.3046 21.5518 28.3359 31.523 28.3359 43.8239C28.3359 56.1247 38.3046 66.096 50.6023 66.096C54.3503 66.096 57.8818 65.1689 60.9803 63.5313C64.7875 61.5214 67.9418 58.439 70.0424 54.685C71.8403 51.4723 72.867 47.7674 72.867 43.8222C72.8686 31.523 62.8999 21.5518 50.6023 21.5518Z" fill="#00AEEF"/>
<path d="M50.6026 60.1883C59.8118 60.1883 67.2774 52.7208 67.2774 43.5092C67.2774 34.2976 59.8118 26.8301 50.6026 26.8301C41.3933 26.8301 33.9277 34.2976 33.9277 43.5092C33.9277 52.7208 41.3933 60.1883 50.6026 60.1883Z" fill="#AFFDFD"/>
<path d="M44.0453 50.5114C39.1286 45.5934 37.1514 38.85 38.1104 32.4619C32.3091 39.0124 32.5425 49.0328 38.8106 55.3042C45.0787 61.5755 54.4047 61.7836 60.9501 56.5899C54.9104 57.1634 48.6711 55.1384 44.0453 50.5114Z" fill="#B1F0F1"/>
<path d="M73.1259 60.4538C73.1597 60.4199 73.1936 60.3912 73.2291 60.3624L71.0659 58.0311L70.0426 54.6865C67.942 58.4389 64.7877 61.5213 60.9805 63.5328L64.4105 64.5783L66.7936 66.8199C66.8342 66.759 66.8815 66.7015 66.9356 66.6473L73.1259 60.4555V60.4538Z" fill="#0076B6"/>
<path d="M97.2758 81.8922L75.3443 60.9988L74.7997 60.4541C74.3701 60.0244 73.6953 59.9956 73.2302 60.3627C73.1946 60.3915 73.1591 60.4219 73.127 60.4541L66.9367 66.646C66.8826 66.7001 66.8352 66.7576 66.7946 66.8185C66.4817 67.2787 66.5291 67.9114 66.9367 68.3191L67.4813 68.8639L88.3236 90.8467C90.6914 93.2169 94.617 93.1323 97.0897 90.6589C99.5625 88.1855 99.647 84.2606 97.2775 81.8905L97.2758 81.8922Z" fill="#00AEEF"/>
<path d="M60.6357 39.7192C60.6357 38.6147 59.7403 37.7192 58.6357 37.7192H37.0607C35.9562 37.7192 35.0607 38.6147 35.0607 39.7192V40.366C35.0607 41.4706 35.9562 42.366 37.0607 42.366H58.6357C59.7403 42.366 60.6357 41.4706 60.6357 40.366V39.7192Z" fill="#B1F0F1"/>
<path d="M60.6357 50.1743C60.6357 49.0697 59.7403 48.1743 58.6357 48.1743H40.5482C39.4437 48.1743 38.5482 49.0697 38.5482 50.1743V50.8211C38.5482 51.9256 39.4437 52.8211 40.5482 52.8211H58.6357C59.7403 52.8211 60.6357 51.9256 60.6357 50.8211V50.1743Z" fill="#B1F0F1"/>
</g>
<defs>
<clipPath id="clip0_2788_30058">
<rect width="70.6637" height="71.0204" fill="white" transform="translate(28.3359 21.5518)"/>
</clipPath>
</defs>
</svg>
