<svg width="104" height="105" viewBox="0 0 104 105" fill="none" xmlns="http://www.w3.org/2000/svg">
<path d="M5 98.7499L14.3583 70.0348L23.206 45.6543C23.733 44.195 24.7315 42.9602 26.042 42.1533L44.4101 30.7454C45.0203 30.3665 45.7206 30.17 46.4348 30.17H65.42L46.0188 74.062L33.7734 84.5789L28.4999 98.7499H5Z" fill="#FFBCB0"/>
<path d="M53.9448 37.6068L40.5553 59.7422L36.7832 54.396L53.9448 37.6068Z" fill="#EDA19E"/>
<path d="M33.7737 84.5717C33.7737 84.5717 21.5006 96.6649 10.8223 98.7487H28.5002L33.7737 84.5717Z" fill="#EDA19E"/>
<path d="M100 7.75H49.0967V42.6715V96.5216L52.2781 94.3065L55.4596 96.5216L58.6411 94.3065L61.8225 96.5216L64.9304 94.3065L68.1855 96.5216L71.3669 94.3065L74.5484 96.5216L77.7299 94.3065L80.9113 96.5216L84.0928 94.3065L87.2743 96.5216L90.4557 94.3065L93.6372 96.5216L96.8186 94.3065L100 96.5216V7.75Z" fill="#F6F6F6"/>
<path d="M85.6897 15.8033H60.6001C59.7709 15.8033 59.0986 16.4756 59.0986 17.3048C59.0986 18.134 59.7709 18.8062 60.6001 18.8062H85.6897C86.5189 18.8062 87.1911 18.134 87.1911 17.3048C87.1911 16.4756 86.5189 15.8033 85.6897 15.8033Z" fill="#D9D9D9"/>
<path d="M77.5199 20.759H68.6009C67.7572 20.759 67.0732 21.443 67.0732 22.2867C67.0732 23.1304 67.7572 23.8144 68.6009 23.8144H77.5199C78.3636 23.8144 79.0476 23.1304 79.0476 22.2867C79.0476 21.443 78.3636 20.759 77.5199 20.759Z" fill="#D9D9D9"/>
<path d="M76.9937 32.6145H58.1386C57.3652 32.6145 56.7383 33.2415 56.7383 34.0149C56.7383 34.7883 57.3652 35.4152 58.1386 35.4152H76.9937C77.7671 35.4152 78.394 34.7883 78.394 34.0149C78.394 33.2415 77.7671 32.6145 76.9937 32.6145Z" fill="#E2E2E2"/>
<path d="M70.6243 38.2161H58.1386C57.3652 38.2161 56.7383 38.843 56.7383 39.6164C56.7383 40.3898 57.3652 41.0168 58.1386 41.0168H70.6243C71.3977 41.0168 72.0247 40.3898 72.0247 39.6164C72.0247 38.843 71.3977 38.2161 70.6243 38.2161Z" fill="#E2E2E2"/>
<path d="M62.9811 43.8173H58.1386C57.3652 43.8173 56.7383 44.4442 56.7383 45.2176C56.7383 45.991 57.3652 46.618 58.1386 46.618H62.9811C63.7545 46.618 64.3815 45.991 64.3815 45.2176C64.3815 44.4442 63.7545 43.8173 62.9811 43.8173Z" fill="#E2E2E2"/>
<path d="M73.9364 49.1642H58.1386C57.3652 49.1642 56.7383 49.7911 56.7383 50.5645C56.7383 51.3379 57.3652 51.9649 58.1386 51.9649H73.9364C74.7098 51.9649 75.3367 51.3379 75.3367 50.5645C75.3367 49.7911 74.7098 49.1642 73.9364 49.1642Z" fill="#E2E2E2"/>
<path d="M72.6625 55.0204H58.1386C57.3652 55.0204 56.7383 55.6473 56.7383 56.4207C56.7383 57.1941 57.3652 57.8211 58.1386 57.8211H72.6625C73.4359 57.8211 74.0629 57.1941 74.0629 56.4207C74.0629 55.6473 73.4359 55.0204 72.6625 55.0204Z" fill="#E2E2E2"/>
<path d="M90.2781 32.6313H89.1571C88.38 32.6313 87.75 33.2613 87.75 34.0385C87.75 34.8156 88.38 35.4456 89.1571 35.4456H90.2781C91.0552 35.4456 91.6852 34.8156 91.6852 34.0385C91.6852 33.2613 91.0552 32.6313 90.2781 32.6313Z" fill="#FFC9C9"/>
<path d="M90.2701 38.2369H85.4384C84.6612 38.2369 84.0312 38.8669 84.0312 39.6441C84.0312 40.4212 84.6612 41.0512 85.4384 41.0512H90.2701C91.0472 41.0512 91.6772 40.4212 91.6772 39.6441C91.6772 38.8669 91.0472 38.2369 90.2701 38.2369Z" fill="#FFC9C9"/>
<path d="M90.2782 43.8428H87.5487C86.7716 43.8428 86.1416 44.4728 86.1416 45.2499C86.1416 46.027 86.7716 46.657 87.5487 46.657H90.2782C91.0553 46.657 91.6853 46.027 91.6853 45.2499C91.6853 44.4728 91.0553 43.8428 90.2782 43.8428Z" fill="#FFC9C9"/>
<path d="M90.2796 49.2062H89.9218C89.1446 49.2062 88.5146 49.8362 88.5146 50.6133C88.5146 51.3904 89.1446 52.0204 89.9218 52.0204H90.2796C91.0568 52.0204 91.6868 51.3904 91.6868 50.6133C91.6868 49.8362 91.0568 49.2062 90.2796 49.2062Z" fill="#FFC9C9"/>
<path d="M90.2782 54.9407H88.0126C87.2355 54.9407 86.6055 55.5707 86.6055 56.3478C86.6055 57.1249 87.2355 57.7549 88.0126 57.7549H90.2782C91.0554 57.7549 91.6853 57.1249 91.6853 56.3478C91.6853 55.5707 91.0554 54.9407 90.2782 54.9407Z" fill="#FFC9C9"/>
<path d="M62.9811 60.6219H58.1386C57.3652 60.6219 56.7383 61.2489 56.7383 62.0223C56.7383 62.7957 57.3652 63.4227 58.1386 63.4227H62.9811C63.7545 63.4227 64.3815 62.7957 64.3815 62.0223C64.3815 61.2489 63.7545 60.6219 62.9811 60.6219Z" fill="#E2E2E2"/>
<path d="M72.6625 79.7173H58.1386C57.3652 79.7173 56.7383 80.3442 56.7383 81.1176C56.7383 81.891 57.3652 82.518 58.1386 82.518H72.6625C73.4359 82.518 74.0629 81.891 74.0629 81.1176C74.0629 80.3442 73.4359 79.7173 72.6625 79.7173Z" fill="#E2E2E2"/>
<path d="M90.2421 79.7173H85.9091C85.1358 79.7173 84.5088 80.3442 84.5088 81.1176C84.5088 81.891 85.1358 82.518 85.9091 82.518H90.2421C91.0155 82.518 91.6424 81.891 91.6424 81.1176C91.6424 80.3442 91.0155 79.7173 90.2421 79.7173Z" fill="#C7237A"/>
<path d="M91.9959 73.715C94.8119 75.4229 97.2313 78.5802 95.6276 81.6471C94.126 84.503 90.0269 86.3196 86.3681 85.9461C81.9438 85.4946 79.4867 82.2934 81.1404 79.5904C81.7652 78.4511 83.0482 77.5491 85.186 77.2586C86.5825 77.0688 88.6505 77.1334 90.084 77.9166C90.9435 78.3837 92.6109 79.1056 93.2539 78.3376C94.7412 76.5609 92.1818 75.081 89.1751 74.5351C82.1795 73.265 75.1797 79.2441 79.3942 84.71C85.3472 91.6093 101.115 85.6122 96.7228 76.6802C95.7292 75.0456 94.104 73.547 92.3725 72.5579C92.0268 72.3628 91.6056 72.2658 91.3542 72.5544C91.1059 72.8567 91.6692 73.5299 91.9959 73.715Z" fill="#C7237A"/>
<path d="M90.2782 60.6753H87.5487C86.7716 60.6753 86.1416 61.3053 86.1416 62.0824C86.1416 62.8596 86.7716 63.4896 87.5487 63.4896H90.2782C91.0553 63.4896 91.6853 62.8596 91.6853 62.0824C91.6853 61.3053 91.0553 60.6753 90.2782 60.6753Z" fill="#FFC9C9"/>
<path d="M33.7734 84.5717L40.437 60.0158L40.4508 59.9948L40.3954 60.0158L52.7933 39.5222C55.4282 34.5408 59.2072 36.1615 59.2072 36.1615C61.336 36.6667 62.1472 38.3154 62.4523 39.5011C62.6257 40.1817 62.6395 40.8973 62.4939 41.5849C62.0779 43.5774 61.4261 45.3594 61.4261 45.3594L58.9992 51.8632H58.9923L52.9805 68.3788C52.1346 70.7081 50.5952 72.7217 48.5844 74.139L33.7734 84.5787V84.5717Z" fill="#FFBCB0"/>
</svg>
