<svg width="104" height="105" viewBox="0 0 104 105" fill="none" xmlns="http://www.w3.org/2000/svg">
<path d="M6 18.6167V80.243C6 84.0359 9.0685 87.1097 12.8548 87.1097H51.974V11.75H12.8548C9.0685 11.75 6 14.8238 6 18.6167Z" fill="#FFC9C9"/>
<path d="M9.5127 18.3039V80.7491C9.5127 82.5327 10.9279 83.98 12.6753 83.98L51.6469 83.7859V15.0748H12.6753C10.9298 15.0748 9.5127 16.5221 9.5127 18.3058V18.3039Z" fill="#1A2142"/>
<path d="M51.9941 87.1121L51.9941 11.7505H91.2278C94.8369 11.7505 97.7689 14.6857 97.7689 18.303V80.5596C97.7689 84.175 94.8388 87.1121 91.2278 87.1121H51.9941Z" fill="#FFC9C9"/>
<path d="M12.1816 18.3039V80.7491C12.1816 82.5327 13.5471 83.98 15.2335 83.98L51.9467 83.7859V15.0748H15.2335C13.5489 15.0748 12.1816 16.5221 12.1816 18.3058V18.3039Z" fill="#E2E2E2"/>
<path d="M15.2617 80.7037L15.2617 18.1569C15.2617 16.4564 16.6401 15.0738 18.3394 15.0738H52.2775L52.2775 83.7849H18.3394C16.6419 83.7849 15.2617 82.4042 15.2617 80.7018V80.7037Z" fill="#F6F6F6"/>
<path d="M51.8975 83.7854L51.8975 15.0743H90.8433C92.5408 15.0743 93.921 16.455 93.921 18.1573V80.7042C93.921 82.4047 92.5427 83.7872 90.8433 83.7872H51.8975V83.7854Z" fill="#E2E2E2"/>
<g clip-path="url(#clip0_3204_3635)">
<path d="M23.6615 91.8994L21.0278 49.8041C20.9975 49.3138 21.1623 48.8316 21.4859 48.4633C21.8095 48.095 22.2656 47.8708 22.7539 47.8399L47.6906 46.2797C47.9329 46.2639 48.1759 46.2963 48.4058 46.3749C48.6356 46.4535 48.8478 46.5769 49.0302 46.7379C49.2126 46.8989 49.3616 47.0944 49.4686 47.3132C49.5757 47.532 49.6387 47.7698 49.6541 48.0131L52.2878 90.1084C52.3185 90.5992 52.1538 91.0821 51.8298 91.4507C51.5058 91.8194 51.0492 92.0437 50.5603 92.0743L37.586 92.886C37.586 92.886 36.19 91.8865 33.706 92.0419C30.9964 92.2114 29.7994 93.3732 29.7994 93.3732L25.619 93.6347C25.1304 93.6649 24.6497 93.4991 24.2827 93.1737C23.9156 92.8483 23.6922 92.39 23.6615 91.8994V91.8994Z" fill="#00AEEF"/>
</g>
<g clip-path="url(#clip1_3204_3635)">
<path d="M31.3659 86.6457L34.3148 44.5712C34.3496 44.0812 34.5766 43.625 34.946 43.3027C35.3154 42.9804 35.7971 42.8184 36.2852 42.8522L61.2095 44.5991C61.4518 44.6154 61.6884 44.6796 61.9059 44.7879C62.1233 44.8962 62.3174 45.0465 62.4769 45.2301C62.6364 45.4138 62.7583 45.6273 62.8355 45.8583C62.9127 46.0894 62.9438 46.3334 62.9269 46.5766L59.978 88.651C59.9436 89.1416 59.7166 89.5984 59.3467 89.9211C58.9769 90.2437 58.4946 90.4058 58.006 90.3715L45.0382 89.4626C45.0382 89.4626 43.7864 88.2875 41.3036 88.1134C38.5953 87.9236 37.2554 88.9171 37.2554 88.9171L33.0771 88.6243C32.5888 88.5897 32.1342 88.3618 31.8133 87.9908C31.4925 87.6198 31.3315 87.1359 31.3659 86.6457V86.6457Z" fill="#001276"/>
</g>
<g clip-path="url(#clip2_3204_3635)">
<g clip-path="url(#clip3_3204_3635)">
<path d="M42.3286 68.4681C42.3286 68.4681 42.3249 68.4617 42.3232 68.4575C42.1446 68.1156 41.99 67.7242 41.8692 67.3168C41.7515 66.924 41.6768 66.5587 41.6679 65.9566C41.6625 65.5961 41.6679 65.1976 41.7456 64.7304C41.8261 64.2533 41.9837 63.8142 42.1729 63.4797C42.3316 63.2003 42.5111 63.0042 42.7137 62.8568C42.8194 62.7783 43.0567 62.6619 43.2002 62.629C43.3499 62.5945 43.5341 62.5931 43.6154 62.6009C43.8349 62.6224 44.3433 62.7235 44.3115 62.9442C44.2984 63.0436 43.801 63.8352 44.605 64.0102C45.3086 64.1005 45.6186 63.7928 45.7332 63.2382C45.779 63.0225 45.8184 62.8391 45.694 62.6013C45.6053 62.4355 45.3311 62.3201 45.1253 62.3078C44.9401 62.2948 44.8389 62.3368 44.7756 62.3937C44.7741 62.3854 44.761 62.3681 44.7596 62.3599C44.7428 62.3075 44.7283 62.2513 44.7538 62.1508C44.7846 62.0322 44.8861 61.9268 44.9397 61.8917C45.0536 61.8138 45.1794 61.7408 45.3799 61.7118C45.4749 61.698 45.5738 61.6886 45.6837 61.6963C45.7061 61.6979 45.7855 61.7035 45.82 61.7079C45.8342 61.7089 45.8387 61.7031 45.8498 61.6916C45.9227 61.6149 46.0317 61.5775 46.2248 61.5951C46.3731 61.6096 46.5702 61.6296 46.7233 61.6914C46.8586 61.7459 46.9269 61.7937 47.0026 61.8522C47.092 61.9198 47.1808 62.0529 47.213 62.1779C47.2614 62.3634 47.2823 62.5899 47.2742 62.8512C47.2482 63.369 47.2993 63.6897 47.4328 63.8872C47.6458 64.2049 47.9725 64.2728 48.2224 64.2679C49.0451 64.2048 48.6629 63.3536 48.6618 63.2532C48.661 63.0302 49.1786 63.001 49.3989 63.0103C49.4805 63.014 49.6627 63.0411 49.8062 63.0961C49.9436 63.1487 50.1622 63.2991 50.2561 63.3895C50.4342 63.5636 50.5864 63.785 50.7047 64.0818C50.8454 64.4394 50.9401 64.8982 50.9534 65.3799C50.9672 65.8534 50.915 66.2487 50.8593 66.6049C50.7665 67.1998 50.6418 67.5491 50.4702 67.9238C50.2938 68.3103 50.0861 68.6763 49.8616 68.9899C49.8614 68.992 49.8571 68.9958 49.8547 68.9997C49.4367 68.6594 49.1742 68.4058 49.0213 68.0186C48.9864 67.9323 48.8628 67.9154 48.8261 68.0008C48.6254 68.4716 49.2713 69.7055 49.2113 69.7729C49.0856 69.9032 48.1878 68.9647 47.7998 67.6998C47.7729 67.6161 47.664 67.5941 47.6119 67.6661C47.2571 68.1446 48.0262 69.8699 48.3404 70.3481C48.3736 70.3996 48.3611 70.4621 48.3097 70.4953C47.7448 70.8485 46.964 71.3053 45.8919 71.5984C44.8712 71.1586 44.1618 70.5974 43.6517 70.1689C43.6053 70.1308 43.6017 70.0651 43.6418 70.0188C44.0198 69.587 45.0218 67.9879 44.7373 67.4647C44.6957 67.3861 44.5828 67.3925 44.5465 67.4718C43.9859 68.6702 42.9658 69.4763 42.8596 69.3277C42.8095 69.2547 43.6193 68.1208 43.4882 67.6267C43.4638 67.537 43.3391 67.5365 43.2925 67.6171C43.0871 67.9791 42.7899 68.1915 42.3303 68.4723L42.3286 68.4681Z" fill="#00AEEF"/>
</g>
</g>
<path d="M80.5656 52.6313C80.5631 52.8761 80.4148 53.0813 80.201 53.1653L80.2018 53.0906L75.0321 53.0139L75.0314 53.0886C74.8276 52.9984 74.6794 52.7888 74.6819 52.544L74.8865 32.378L80.7702 32.4653L80.5656 52.6313Z" fill="#001276"/>
<path d="M75.2899 8.6596L80.7017 8.73989C81.207 8.74739 81.6079 9.1641 81.5986 9.66186L81.2335 32.4726L74.4061 32.3713L74.3786 9.5672C74.3711 9.06504 74.7846 8.65626 75.294 8.66382L75.2899 8.6596Z" fill="#001276"/>
<path d="M76.1859 63.9441C76.8456 63.9539 78.1775 63.9902 78.8333 63.9834C78.8333 63.9834 78.8625 63.988 78.8792 63.9882C78.946 63.9892 79.0046 63.9735 79.0592 63.9452L79.0455 65.3018C78.3405 65.6316 77.6002 70.2593 77.6336 70.2681L77.3481 70.2647L77.287 70.263C77.287 70.263 76.6481 65.7268 75.9094 65.2553L75.9234 63.8821C75.9814 63.9245 76.0521 63.9504 76.1357 63.9517C76.1565 63.952 76.1649 63.9521 76.1858 63.9482L76.1859 63.9441Z" fill="#001276"/>
<path d="M80.2099 53.0907L80.2091 53.1654L79.2205 63.7559C79.2205 63.7559 79.212 63.7683 79.2035 63.7847C79.1819 63.8508 79.1264 63.9089 79.0592 63.9452C79.0088 63.9735 78.946 63.9892 78.8792 63.9882C78.8583 63.9879 78.85 63.9878 78.8333 63.9834C78.1775 63.9902 76.8456 63.9539 76.1859 63.9441C76.1692 63.9439 76.1572 63.947 76.1363 63.9467C76.0528 63.9454 75.9779 63.9194 75.924 63.8771C75.8618 63.8347 75.8207 63.7719 75.8089 63.7012C75.8089 63.697 75.8007 63.6845 75.8007 63.6845L75.0353 53.0886L75.0361 53.0139L80.2099 53.0907Z" fill="#001276"/>
<defs>
<clipPath id="clip0_3204_3635">
<rect width="28.6778" height="45.8844" fill="white" transform="translate(20.9121 47.9551) rotate(-3.58001)"/>
</clipPath>
<clipPath id="clip1_3204_3635">
<rect width="28.6778" height="45.8844" fill="white" transform="translate(34.4443 42.7231) rotate(4.00919)"/>
</clipPath>
<clipPath id="clip2_3204_3635">
<rect width="9.28163" height="10" fill="white" transform="translate(41.96 61.2941) rotate(4.00919)"/>
</clipPath>
<clipPath id="clip3_3204_3635">
<rect width="9.28163" height="10" fill="white" transform="translate(41.96 61.2941) rotate(4.00919)"/>
</clipPath>
</defs>
</svg>
